<svg width="66" height="59" viewBox="0 0 66 59" fill="none" xmlns="http://www.w3.org/2000/svg">
<path d="M44.2294 38.259C44.297 38.0958 44.3961 37.9474 44.521 37.8225C44.6459 37.6976 44.7942 37.5985 44.9574 37.5309C45.1206 37.4633 45.2956 37.4285 45.4722 37.4285C45.6489 37.4285 45.8238 37.4633 45.9871 37.5309C46.1503 37.5985 46.2986 37.6976 46.4235 37.8225L58.0724 49.4714C58.9233 50.3224 58.3084 51.7678 57.1213 51.768C57.1213 51.768 57.1212 51.768 57.1211 51.768V51.618C56.9641 51.6181 56.8087 51.5873 56.6636 51.5272C56.5186 51.4672 56.3868 51.379 56.2759 51.2679L44.2294 38.259ZM44.2294 38.259C44.1618 38.4222 44.127 38.5971 44.127 38.7738C44.127 38.9505 44.1618 39.1254 44.2294 39.2886C44.297 39.4518 44.3961 39.6001 44.521 39.725L56.1698 51.3738L44.2294 38.259ZM3.54055 22.6471L29.6267 35.3153L29.6922 35.1804L29.6267 35.3153C31.8186 36.3797 34.2741 36.33 36.3608 35.3206L54.5632 26.5165C54.7223 26.4395 54.8646 26.332 54.9821 26.2001C55.0996 26.0682 55.1899 25.9144 55.248 25.7475C55.306 25.5807 55.3307 25.404 55.3205 25.2277C55.3102 25.0513 55.2654 24.8787 55.1885 24.7196C55.1115 24.5606 55.004 24.4183 54.8721 24.3008C54.7402 24.1833 54.5864 24.0929 54.4195 24.0349C54.2527 23.9768 54.076 23.9522 53.8997 23.9624C53.7233 23.9726 53.5507 24.0174 53.3916 24.0944L35.1892 32.8985L35.2529 33.0303L35.1892 32.8985C33.7946 33.5732 32.1961 33.5721 30.802 32.8952L3.54055 19.6561V16.206C3.54055 13.7271 5.55743 11.7103 8.03632 11.7103H33.6709C34.4139 11.7103 35.0162 11.108 35.0162 10.365C35.0162 9.62196 34.4139 9.01972 33.6709 9.01972H8.03632C4.07375 9.01972 0.85 12.2433 0.85 16.206V51.2523C0.85 55.215 4.07375 58.4387 8.03632 58.4387H57.9509C61.9135 58.4387 65.1372 55.215 65.1372 51.2523V18.7299C65.1372 18.3731 64.9955 18.0309 64.7432 17.7786C64.4909 17.5263 64.1487 17.3846 63.7919 17.3846C63.4351 17.3846 63.0929 17.5263 62.8406 17.7786C62.5883 18.0309 62.4466 18.3731 62.4466 18.7299V51.2523C62.4466 53.7312 60.4297 55.7481 57.9508 55.7481H8.03632C5.55743 55.7481 3.54055 53.7312 3.54055 51.2523V22.6471ZM7.91472 49.4714L8.02079 49.5775L7.91472 49.4714C7.66243 49.7237 7.5207 50.0659 7.52072 50.4227C7.52073 50.7795 7.66248 51.1217 7.91479 51.374C8.1671 51.6263 8.5093 51.768 8.8661 51.768C9.2229 51.768 9.56509 51.6262 9.81738 51.3739L21.4663 39.725C21.5912 39.6001 21.6903 39.4518 21.7579 39.2886C21.8255 39.1253 21.8603 38.9504 21.8603 38.7737C21.8603 38.5971 21.8255 38.4221 21.7578 38.2589C21.6902 38.0957 21.5911 37.9474 21.4662 37.8225C21.3413 37.6975 21.193 37.5984 21.0297 37.5308C20.8665 37.4632 20.6916 37.4284 20.5149 37.4285C20.3382 37.4285 20.1633 37.4633 20.0001 37.5309C19.8368 37.5985 19.6885 37.6976 19.5636 37.8225L7.91472 49.4714ZM64.58 11.5307L64.4936 11.4081L64.58 11.5307C65.3408 10.9946 65.3392 9.86616 64.58 9.33118L64.4936 9.4538L64.58 9.33117L52.8929 1.09705C52.002 0.46938 50.7727 1.10934 50.7727 2.19674V5.36695H40.298C39.9412 5.36695 39.5991 5.50869 39.3468 5.76098L39.4528 5.86704L39.3468 5.76098C39.0945 6.01326 38.9527 6.35544 38.9527 6.71223C38.9527 7.06902 39.0945 7.4112 39.3468 7.66348L39.4528 7.55742L39.3468 7.66348C39.5991 7.91577 39.9412 8.05751 40.298 8.05751H52.118C52.4748 8.05751 52.8169 7.91577 53.0692 7.66348C53.3215 7.4112 53.4633 7.06902 53.4633 6.71223V4.79027L61.4694 10.4309L53.4633 16.0716V14.1496C53.4633 13.7928 53.3215 13.4507 53.0692 13.1984C52.8169 12.9461 52.4748 12.8044 52.118 12.8044H42.9542C42.2112 12.8044 41.6089 13.4066 41.6089 14.1496C41.6089 14.8927 42.2112 15.4949 42.9542 15.4949H50.7727V18.6651C50.7727 19.7551 52.0037 20.3912 52.8928 19.7648L52.8065 19.6422L52.8928 19.7648L64.58 11.5307Z" fill="#212121" stroke="#212121" stroke-width="0.3"/>
</svg>
