<svg width="64" height="64" viewBox="0 0 64 64" fill="none" xmlns="http://www.w3.org/2000/svg">
<path d="M32 0C14.3547 0 0 14.3547 0 32C0 49.6453 14.3547 64 32 64C49.6453 64 64 49.6453 64 32C64 14.3547 49.6453 0 32 0ZM48.5333 28.032L36.7307 39.6187C34.6427 41.6667 31.9547 42.688 29.264 42.688C26.6027 42.688 23.9413 41.6853 21.8613 39.6773L16.7973 34.6987C15.7467 33.6667 15.7333 31.9787 16.7653 30.928C17.7947 29.8747 19.488 29.8613 20.536 30.896L25.584 35.8587C27.6533 37.8587 30.92 37.848 33 35.8107L44.8 24.2267C45.848 23.192 47.5307 23.2107 48.5707 24.2613C49.6027 25.312 49.5867 27 48.5333 28.032Z" fill="#FA5629"/>
</svg>
